<?xml version="1.0" standalone="no"?>
<!DOCTYPE svg PUBLIC "-//W3C//DTD SVG 20010904//EN"
 "http://www.w3.org/TR/2001/REC-SVG-20010904/DTD/svg10.dtd">
<svg version="1.0" xmlns="http://www.w3.org/2000/svg"
 width="600.000000pt" height="600.000000pt" viewBox="0 0 600.000000 600.000000"
 preserveAspectRatio="xMidYMid meet">
<metadata>
Created by potrace 1.11, written by Peter Selinger 2001-2013
</metadata>
<g transform="translate(0.000000,600.000000) scale(0.100000,-0.100000)"
fill="#000000" stroke="none">
<path d="M2539 5791 c-3 -20 -5 -26 -17 -48 -7 -13 -10 -23 -7 -23 3 0 1 -8
-4 -18 -6 -11 -12 -30 -14 -43 -3 -13 -10 -42 -15 -64 -6 -22 -13 -53 -15 -70
-12 -78 -49 -160 -90 -199 -41 -40 -55 -91 -51 -194 2 -53 7 -118 12 -143 9
-48 7 -575 -2 -644 -3 -22 -8 -96 -11 -164 -2 -68 -7 -126 -10 -129 -3 -4 -19
8 -36 26 -31 33 -66 42 -73 20 -3 -7 -7 -26 -11 -41 l-6 -29 -22 29 c-12 15
-25 30 -29 31 -5 2 -8 10 -8 18 0 8 -4 14 -9 14 -5 0 -19 19 -31 43 -26 52
-80 97 -117 100 -26 2 -28 0 -28 -38 0 -22 5 -62 12 -90 8 -27 15 -72 18 -100
3 -27 7 -67 11 -88 l6 -38 -26 24 c-14 14 -26 29 -26 35 0 29 -74 38 -91 11
-7 -12 -4 -113 5 -127 2 -4 7 -27 11 -52 4 -25 10 -49 13 -55 4 -5 7 -12 7
-15 1 -3 5 -27 9 -55 11 -66 16 -183 9 -218 l-6 -27 -36 22 c-20 12 -37 26
-39 30 -2 4 -10 8 -18 8 -8 0 -14 3 -14 8 0 4 -24 18 -52 32 -29 13 -81 46
-115 72 -34 26 -67 48 -73 48 -5 0 -10 4 -10 10 0 5 -6 7 -14 4 -7 -3 -26 6
-42 19 -25 21 -73 44 -82 38 -1 -1 -15 5 -32 14 -36 19 -79 19 -104 0 -18 -14
-18 -15 6 -47 14 -18 38 -46 52 -63 14 -16 26 -36 26 -42 0 -7 5 -13 11 -13 5
0 8 -4 5 -8 -3 -5 5 -15 18 -22 13 -7 30 -23 37 -37 7 -14 26 -36 42 -49 16
-13 30 -31 31 -40 4 -26 175 -194 198 -194 4 0 7 -3 6 -7 -5 -15 62 -101 102
-133 76 -60 24 -57 -157 8 -46 17 -83 28 -83 25 0 -3 -6 -1 -13 4 -19 16 -116
45 -126 39 -13 -8 -5 -47 11 -58 7 -4 9 -8 3 -8 -5 0 -2 -5 8 -11 9 -5 17 -21
17 -35 0 -24 -2 -25 -40 -19 -33 6 -40 4 -40 -9 0 -17 65 -86 80 -86 5 0 46
-21 92 -48 46 -26 148 -77 228 -114 80 -37 157 -73 172 -80 45 -21 37 -31 -67
-89 -77 -43 -99 -59 -152 -106 -24 -21 -24 -22 -5 -32 11 -6 21 -8 24 -6 3 3
31 7 64 10 32 3 79 8 104 11 25 3 69 7 98 9 l53 3 -5 -32 c-12 -71 -18 -102
-25 -116 -13 -27 -12 -80 1 -80 7 0 31 16 52 35 22 19 43 35 48 35 5 0 32 16
60 35 41 27 55 32 66 23 8 -7 24 -17 36 -23 21 -11 25 -39 13 -90 -3 -11 -8
-38 -11 -60 -6 -32 -13 -43 -37 -54 -17 -7 -41 -24 -54 -37 -13 -13 -28 -24
-32 -25 -4 0 -24 -20 -43 -44 -19 -24 -39 -44 -43 -44 -5 -1 -5 3 -2 9 3 5 8
18 10 27 2 10 12 53 23 95 20 79 16 102 -17 91 -9 -4 -24 -15 -34 -25 -34 -35
-117 -150 -138 -190 -27 -54 -67 -178 -74 -229 -3 -23 -7 -44 -10 -48 -2 -4
-5 -26 -6 -49 -2 -23 -6 -42 -9 -42 -4 0 -13 22 -20 50 -7 27 -17 50 -21 50
-4 0 -7 6 -6 13 2 53 -27 73 -45 29 -13 -33 -17 -142 -7 -197 4 -22 9 -56 12
-75 3 -19 8 -44 10 -55 21 -86 31 -116 43 -126 8 -6 14 -15 14 -20 0 -16 -26
-10 -50 11 -13 11 -32 20 -42 20 -21 0 -20 -22 0 -73 7 -16 12 -31 12 -34 0
-8 84 -128 93 -131 4 -2 7 -8 7 -13 0 -15 -34 -10 -59 7 -31 22 -46 1 -23 -35
18 -30 116 -126 157 -156 59 -42 69 -57 65 -107 -2 -37 9 -69 23 -66 7 1 21
-3 32 -9 19 -11 27 -13 43 -13 4 0 18 -10 32 -23 45 -41 117 -97 124 -97 4 0
29 -14 56 -32 39 -26 49 -38 54 -69 3 -21 19 -50 35 -68 29 -31 51 -35 81 -16
68 44 72 44 120 17 40 -24 53 -26 135 -24 49 1 101 5 115 7 31 5 37 1 79 -52
30 -39 36 -43 78 -43 44 0 49 3 112 70 37 39 74 70 84 70 10 0 50 11 89 25 75
26 98 25 129 -6 10 -10 43 -33 74 -50 30 -17 63 -41 73 -53 25 -33 53 -45 79
-35 38 14 43 39 40 199 l-2 152 40 34 c22 18 46 38 52 44 7 6 33 24 58 41 39
27 50 30 73 21 72 -28 155 -44 234 -47 103 -3 109 3 67 66 -16 24 -29 48 -29
53 0 16 -33 86 -41 86 -3 0 -12 20 -19 44 -12 45 -3 78 35 124 8 9 20 25 28
35 7 10 28 20 47 23 19 3 60 12 90 19 30 8 70 17 89 20 54 9 294 94 309 109
11 11 4 18 -50 45 -35 17 -72 37 -83 44 -104 64 -140 95 -174 150 -17 26 -17
30 0 95 22 78 33 88 144 144 44 23 94 51 111 64 17 13 35 24 40 24 12 0 140
124 153 149 9 16 6 23 -15 40 -15 11 -30 18 -34 16 -5 -3 -11 -1 -14 4 -3 5
-50 9 -105 10 -122 2 -135 5 -180 34 -35 23 -36 26 -33 72 3 33 12 56 28 74
13 14 28 38 35 53 6 15 16 28 21 28 5 0 6 5 3 10 -3 6 -1 10 4 10 6 0 11 9 11
20 0 11 5 20 10 20 6 0 10 5 10 10 0 6 19 39 41 73 23 34 53 85 67 112 14 28
33 61 42 75 26 39 60 130 60 159 0 56 -13 56 -135 1 -117 -53 -275 -82 -309
-57 -33 24 -27 117 13 202 18 39 36 79 41 90 4 11 17 40 29 65 11 25 23 57 26
73 4 15 12 27 18 27 6 0 7 3 4 7 -4 3 -2 12 4 20 6 7 9 13 6 13 -3 0 1 21 9
48 8 26 17 74 20 107 2 33 7 67 9 76 3 8 -1 24 -9 34 -13 18 -16 17 -72 -20
-32 -22 -64 -45 -70 -51 -16 -15 -235 -124 -259 -129 -11 -2 -35 -7 -52 -11
-29 -6 -34 -3 -43 20 -13 35 -23 126 -23 214 0 60 5 81 29 127 16 31 43 66 61
78 18 12 33 26 33 30 0 5 5 5 10 2 6 -3 10 -1 10 5 0 7 7 9 16 6 8 -3 12 -2 9
3 -7 12 31 24 46 15 8 -4 9 -3 5 4 -11 18 55 25 177 20 117 -5 166 -18 274
-69 35 -16 66 -30 70 -31 13 -2 138 -91 141 -100 2 -4 9 -8 15 -8 6 0 26 -14
43 -31 44 -42 69 -34 60 19 -7 37 -51 164 -67 192 -4 8 -20 35 -34 59 -14 24
-25 50 -25 57 0 8 -4 14 -10 14 -5 0 -10 4 -10 9 0 30 -221 347 -279 400 -14
13 -58 53 -98 90 -83 77 -100 91 -108 91 -11 0 -38 31 -32 36 2 3 14 6 26 7
11 1 21 5 21 9 0 4 7 5 15 2 8 -4 15 -1 15 5 0 6 3 10 8 9 11 -3 56 23 65 39
5 7 13 11 19 7 6 -4 6 2 -1 15 -7 11 -15 21 -19 22 -31 4 -62 8 -87 9 -16 1
-50 6 -75 11 -90 17 -116 21 -180 25 -78 5 -86 8 -99 32 -7 13 -7 19 2 20 51
3 132 42 188 90 57 49 52 63 -18 58 -32 -2 -58 -5 -58 -6 0 -5 -115 -5 -147 1
-21 3 -41 2 -47 -4 -6 -6 -11 -7 -11 -1 0 5 -42 10 -93 10 -53 1 -107 8 -126
16 l-35 14 86 43 c90 44 127 72 147 110 7 12 17 18 23 15 6 -4 8 -3 4 4 -7 12
13 62 25 62 6 0 29 53 29 67 0 6 -43 -3 -75 -16 -16 -7 -37 -14 -45 -16 -8 -2
-31 -10 -50 -18 -19 -8 -55 -18 -80 -21 -25 -3 -56 -8 -70 -11 -31 -6 -151
-16 -210 -16 -102 -2 -322 -62 -347 -96 -7 -9 -13 -13 -13 -8 0 16 -60 -49
-87 -94 l-25 -44 -28 54 c-59 119 -83 156 -125 194 -39 37 -65 78 -65 106 0 6
5 7 12 3 7 -5 8 -3 2 7 -4 8 -9 20 -11 28 -3 24 -26 31 -45 14 -17 -15 -18
-14 -19 23 -2 81 -13 134 -28 134 -4 0 -16 -6 -26 -14 -18 -13 -20 -9 -40 68
-12 44 -31 99 -42 121 -12 22 -21 45 -21 50 -1 14 -32 19 -33 6z m525 -2712
c2 -2 6 -40 10 -84 7 -93 12 -131 28 -200 7 -27 12 -52 13 -55 2 -17 41 -100
47 -100 11 0 38 -56 38 -80 0 -11 -4 -20 -10 -20 -5 0 -10 -6 -10 -14 0 -8
-12 -27 -27 -43 -16 -17 -28 -34 -28 -40 0 -10 -19 -38 -60 -92 -12 -14 -29
-45 -39 -68 -10 -23 -26 -43 -35 -46 -9 -3 -24 -8 -33 -12 -15 -6 -18 -2 -18
26 0 18 7 55 16 84 15 45 23 55 68 80 73 40 82 52 79 108 -1 27 -6 54 -12 61
-5 6 -13 27 -16 45 -3 19 -10 42 -16 53 -6 10 -12 47 -13 81 -4 73 -13 110
-37 155 -10 17 -16 32 -13 32 4 0 2 6 -4 13 -6 7 -14 39 -18 71 l-7 57 47 -4
c26 -2 48 -6 50 -8z m730 -746 c3 -15 8 -41 12 -58 9 -41 14 -328 6 -340 -4
-5 -7 -19 -8 -30 -2 -11 -8 -47 -14 -80 -7 -33 -13 -69 -15 -80 -2 -11 -4 -20
-5 -20 -1 0 -4 -13 -6 -29 -3 -16 -11 -40 -18 -54 -12 -23 -14 -21 -36 46 -12
39 -22 74 -22 76 1 3 -5 21 -14 41 -8 19 -14 37 -14 40 -1 6 -3 13 -28 90 -39
116 -38 124 8 194 23 34 45 74 50 89 8 24 39 220 40 253 1 19 57 -102 64 -138z
m-1588 -860 c14 -49 32 -107 40 -129 28 -90 96 -250 147 -349 l53 -104 -39 22
c-54 30 -171 156 -202 217 -14 27 -23 50 -21 50 3 0 -2 17 -11 38 -21 50 -26
89 -26 206 0 72 4 101 14 107 11 7 11 9 1 9 -7 0 -10 5 -7 10 14 23 26 5 51
-77z"/>
<path d="M3516 5485 c-3 -8 -1 -15 4 -15 6 0 10 7 10 15 0 8 -2 15 -4 15 -2 0
-6 -7 -10 -15z"/>
</g>
</svg>
